Coordinates
version=1
nRows=16
nColumns=28
inDegrees=yes

Units are S.I. units (second, meters, Newtons, ...)
Angles are in degrees.

endheader
time	pelvis_tilt	pelvis_list	pelvis_rotation	pelvis_tx	pelvis_ty	pelvis_tz	hip_flexion_r	hip_adduction_r	hip_rotation_r	knee_angle_r	ankle_angle_r	subtalar_angle_r	mtp_angle_r	hip_flexion_l	hip_adduction_l	hip_rotation_l	knee_angle_l	socket_flexion	socket_adduction	socket_rotation	socket_tx	socket_ty	socket_tz	foot_flex	lumbar_extension	lumbar_bending	lumbar_rotation
      0.00000000	      0.01454156	     -6.77792043	     -7.92020956	     -0.91087109	      0.98976641	      0.31514573	    -26.29912378	      8.19258263	      4.16577641	     -2.86783039	      6.35743180	     -3.93663065	     14.68191236	     27.00394521	     -9.57814398	      2.30631260	     -2.78926686	      2.14079144	     -0.76524892	      5.06787547	      0.00000000	     -0.00063504	      0.00000000	     -0.51669722	    -11.70055587	      4.87318148	     11.19922032
      0.00416667	     -0.04532308	     -6.81377210	     -8.00387076	     -0.90533449	      0.98908726	      0.31493094	    -26.30190637	      8.16181188	      4.14621950	     -3.32232455	      6.18438958	     -4.02663117	     14.67263715	     26.74203761	     -9.56794833	      2.25041061	     -2.67490668	      2.16079339	     -0.80196947	      5.18391070	      0.00000000	     -0.00102998	      0.00000000	     -0.84173187	    -11.62896144	      4.91740856	     11.19572252
      0.00833333	     -0.11892089	     -6.85002111	     -7.97320882	     -0.89937337	      0.98827494	      0.31453678	    -26.40882464	      8.17193134	      4.20846973	     -3.58284067	      6.12641056	     -4.03326619	     14.67301378	     26.54743121	     -9.49334731	      2.29201915	     -2.69315130	      2.13775450	     -0.86691939	      5.25140707	      0.00000000	     -0.00150673	      0.00000000	     -0.95143764	    -11.47056075	      4.94199351	     11.20085825
      0.01250000	     -0.17579437	     -6.94506822	     -8.08585878	     -0.89345438	      0.98761451	      0.31428746	    -26.31054059	      8.18055178	      4.11474699	     -4.30301401	      5.88264536	     -4.14967844	     14.67199215	     26.24028739	     -9.55360824	      2.17466394	     -2.53671364	      2.14852731	     -0.91551469	      5.49768554	      0.00000000	     -0.00214791	      0.00000000	     -1.53166402	    -11.45917191	      5.03658445	     11.24474297
      0.01666667	     -0.25492719	     -6.98400328	     -8.05893649	     -0.88706721	      0.98676558	      0.31388840	    -26.42202882	      8.18340359	      4.18175678	     -4.57824794	      5.82329321	     -4.15144246	     14.67663271	     26.03269577	     -9.48108717	      2.21437148	     -2.56786403	      2.13724852	     -0.98434755	      5.57602165	      0.00000000	     -0.00275985	      0.00000000	     -1.61626011	    -11.28761752	      5.06051071	     11.25551367
      0.02083333	     -0.31415808	     -7.08203512	     -8.20337514	     -0.88094157	      0.98615347	      0.31364555	    -26.26372057	      8.17508715	      4.08984789	     -5.40978960	      5.51579097	     -4.24812481	     14.69497259	     25.70313059	     -9.55555591	      2.04402806	     -2.40792834	      2.16405107	     -1.03222801	      5.88520237	      0.00000000	     -0.00345290	      0.00000000	     -2.20878125	    -11.27953549	      5.14310934	     11.33152207
      0.02500000	     -0.36792264	     -7.05176530	     -8.70882949	     -0.87417472	      0.98574690	      0.31401881	    -26.14809460	      7.87166705	      4.25404082	     -6.21634515	      5.41912093	     -4.03456631	     15.30305436	     25.11201616	     -9.66871263	      1.04635681	     -1.96200132	      2.34816626	     -1.09616850	      6.56742361	      0.00000000	     -0.00423023	      0.00000000	     -2.42030706	    -11.16333506	      5.00075160	     11.97930136
      0.02916667	     -0.39931799	     -7.07680165	     -8.69129396	     -0.86762657	      0.98508905	      0.31358266	    -26.15948893	      7.84349082	      4.24345154	     -6.77487235	      5.14067577	     -4.07065902	     15.32970079	     24.83206501	     -9.58085667	      1.07952092	     -1.98136821	      2.30206185	     -1.16256076	      6.74074405	      0.00000000	     -0.00497598	      0.00000000	     -2.80198425	    -11.09094061	      4.99465616	     11.97902374
      0.03333333	     -0.45122383	     -7.10396941	     -8.71518955	     -0.86102698	      0.98451260	      0.31324553	    -26.11838718	      7.80497833	      4.21960419	     -7.36706902	      4.85586544	     -4.12057494	     15.36189468	     24.55293922	     -9.52886200	      1.07575637	     -1.98803017	      2.29099120	     -1.22581339	      6.95141666	      0.00000000	     -0.00569022	      0.00000000	     -3.10770169	    -11.01825160	      5.00009230	     11.97872059
      0.03750000	     -0.51873597	     -7.12274349	     -8.66810988	     -0.85405135	      0.98383095	      0.31281627	    -26.17872473	      7.78476595	      4.30342948	     -7.76516161	      4.71819775	     -4.12782344	     15.37063882	     24.28861623	     -9.42910604	      1.14493544	     -2.02979545	      2.25578516	     -1.29060305	      7.08014693	      0.00000000	     -0.00658028	      0.00000000	     -3.23503432	    -10.82972608	      5.01408672	     11.97735976
      0.04166667	     -0.56561635	     -7.13218650	     -8.74787559	     -0.84767740	      0.98345136	      0.31251897	    -25.95799962	      7.70780228	      4.26345688	     -8.67538396	      4.23785433	     -4.22054572	     15.37744966	     24.00182570	     -9.38907462	      1.11147433	     -2.01111592	      2.28114584	     -1.34554233	      7.36839829	      0.00000000	     -0.00726289	      0.00000000	     -3.73645386	    -10.82677672	      4.96976178	     11.95858394
      0.04583333	     -0.67096443	     -6.89079755	     -9.20613290	     -0.84036124	      0.98318953	      0.31289277	    -25.65913590	      7.20667065	      4.16582778	     -9.60922399	      3.65379714	     -4.14847905	     16.79489540	     23.56965151	     -9.25441935	     -0.18644363	     -1.92037541	      2.26190399	     -1.42299492	      8.24762229	      0.00000000	     -0.00810127	      0.00000000	     -3.94369509	    -10.54291450	      4.60282557	     12.46050332
      0.05000000	     -0.67420351	     -6.88303501	     -9.19148632	     -0.83367498	      0.98287292	      0.31245519	    -25.55807345	      7.13031240	      4.13907282	    -10.36182686	      3.21741209	     -4.23146363	     16.86943507	     23.27690994	     -9.14009927	     -0.13705252	     -2.02915415	      2.22922785	     -1.48137181	      8.39790813	      0.00000000	     -0.00896175	      0.00000000	     -4.23870993	    -10.50661378	      4.57520361	     12.38941917
      0.05416667	     -0.70546358	     -6.83083412	     -9.19563250	     -0.82696309	      0.98262850	      0.31212008	    -25.38794988	      7.01639326	      4.12952882	    -11.16394898	      2.74677141	     -4.33139808	     16.95976685	     23.00366452	     -9.00398397	     -0.13845140	     -2.11955359	      2.22622647	     -1.52723617	      8.57595769	      0.00000000	     -0.00975044	      0.00000000	     -4.47928851	    -10.42564146	      4.48163513	     12.32586667
      0.05833333	     -0.74621115	     -6.81462778	     -9.06725859	     -0.81984176	      0.98228276	      0.31169839	    -25.42345155	      7.00240985	      4.29035321	    -11.59748058	      2.58837501	     -4.32547867	     16.96929071	     22.74818034	     -8.85753504	     -0.03986881	     -2.21996637	      2.24339167	     -1.54715450	      8.69527724	      0.00000000	     -0.01077440	      0.00000000	     -4.55738164	    -10.22379753	      4.44237999	     12.31029503
      0.06250000	     -0.78105186	     -6.66820621	     -9.19644346	     -0.81356830	      0.98236013	      0.31149698	    -24.93223221	      6.74738355	      4.13831436	    -12.90413942	      1.72881685	     -4.54813174	     17.00524191	     22.48383048	     -8.67918199	     -0.16060815	     -2.30377928	      2.26364840	     -1.58678322	      8.84208210	      0.00000000	     -0.01126114	      0.00000000	     -4.92749765	    -10.23354926	      4.21336168	     12.19267360
